# xmcd
#
# Track frame offsets:
#	150
#	14583
#	29369
#	41724
#	53271
#	69443
#	84180
#	96270
#	107065
#	120869
#	136265
#	148035
#
# Disc length: 2156 seconds
#
# Revision: 0
# Processed by: cddbd v1.5PL3 Copyright (c) Steve Scherf et al.
# Submitted via: dBpowerAMP V4.0
#
DISCID=94086a0c
DTITLE=Various Artist - Cuban Divas
DYEAR=2002
DGENRE=Jazz
TTITLE0=Lagrimas Negras
TTITLE1=Brisa Tropical
TTITLE2=Que Me Castigue Dios
TTITLE3=La Renuncia
TTITLE4=La Noche De Anoche
TTITLE5=Alma Con Alma
TTITLE6=No He De Volver
TTITLE7=Toda Una Vida
TTITLE8=Mienteme
TTITLE9=Es Contigo
TTITLE10=Besos Brujos
TTITLE11=La Roca
EXTD=
EXTT0=
EXTT1=
EXTT2=
EXTT3=
EXTT4=
EXTT5=
EXTT6=
EXTT7=
EXTT8=
EXTT9=
EXTT10=
EXTT11=
PLAYORDER=
